<svg xmlns="http://www.w3.org/2000/svg" xmlns:xlink="http://www.w3.org/1999/xlink" width="140" height="140" viewBox="0 0 140 140">
  <defs>
    <clipPath id="clip-Video_Stories_icon">
      <rect width="140" height="140"/>
    </clipPath>
  </defs>
  <g id="Video_Stories_icon" data-name="Video Stories icon" clip-path="url(#clip-Video_Stories_icon)">
    <g id="Group_4831" data-name="Group 4831" transform="translate(15.41 22.41)">
      <g id="Group_4801" data-name="Group 4801" transform="translate(-1.41 -1.41)">
        <path id="Line_3" data-name="Line 3" d="M58.589,1.878H0V-2H58.589Z" transform="translate(26.266 96.722)" fill="#191a1a"/>
        <path id="Line_4" data-name="Line 4" d="M1.5,10.8-1.6,8.471,5.654-1.2l3.1,2.327Z" transform="translate(40.201 86.787)" fill="#191a1a"/>
        <path id="Line_5" data-name="Line 5" d="M5.654,10.8-1.6,1.127,1.5-1.2,8.756,8.471Z" transform="translate(63.763 86.787)" fill="#191a1a"/>
        <path id="Path_130910" data-name="Path 130910" d="M98.148,80.784H10.972a12.217,12.217,0,0,1-8.424-3.3A11.044,11.044,0,0,1-1,69.393v-59A11.044,11.044,0,0,1,2.547,2.3,12.217,12.217,0,0,1,10.972-1H98.148a12.217,12.217,0,0,1,8.424,3.3,11.044,11.044,0,0,1,3.548,8.1v59a11.044,11.044,0,0,1-3.548,8.1A12.217,12.217,0,0,1,98.148,80.784ZM10.972,2.878c-4.463,0-8.093,3.37-8.093,7.513v59c0,4.142,3.631,7.513,8.093,7.513H98.148c4.463,0,8.093-3.37,8.093-7.513v-59c0-4.142-3.631-7.513-8.093-7.513Z" transform="translate(1 1)" fill="#191a1a"/>
        <path id="Ellipse_208" data-name="Ellipse 208" d="M22.409-2a24.4,24.4,0,0,1,17.26,41.668A24.409,24.409,0,1,1,12.907-.081,24.258,24.258,0,0,1,22.409-2Zm0,44.939A20.536,20.536,0,0,0,30.4,3.491,20.536,20.536,0,0,0,14.418,41.326,20.4,20.4,0,0,0,22.409,42.939Z" transform="translate(33.152 18.835)" fill="#191a1a"/>
        <path id="Path_130911" data-name="Path 130911" d="M36.868,20.5h0a3.972,3.972,0,0,1,2.064.583l10.415,6.337a3.981,3.981,0,0,1,.044,6.774L38.977,40.72a3.976,3.976,0,0,1-6.093-3.373V24.486a3.936,3.936,0,0,1,1.223-2.871A3.981,3.981,0,0,1,36.868,20.5Zm0,16.949a.089.089,0,0,0,.05-.019L47.334,30.91a.087.087,0,0,0,.048-.087.088.088,0,0,0-.05-.087L36.917,24.4a.088.088,0,0,0-.048-.018.131.131,0,0,0-.081.036.077.077,0,0,0-.024.068V37.347A.107.107,0,0,0,36.868,37.452Z" transform="translate(15.7 10.328)" fill="#191a1a"/>
      </g>
    </g>
  </g>
</svg>
